<svg width="192" height="28" viewBox="0 0 192 28" fill="none" xmlns="http://www.w3.org/2000/svg">
  <rect x="1" y="4" width="20" height="20" rx="10" fill="#0B0B0B"/>
  <path d="M7 18V10H11.8C13.5874 10 15 11.3504 15 13C15 14.6496 13.5874 16 11.8 16H9.2V18H7ZM9.2 14H11.6C12.3922 14 13 13.5523 13 13C13 12.4477 12.3922 12 11.6 12H9.2V14Z" fill="#F36A18"/>
  <path d="M17 10V18H14.8V10H17Z" fill="white"/>
  <path d="M34.06 22V6.92H43.3V9.5H37.18V13.16H42.72V15.72H37.18V22H34.06ZM46.3958 22V6.92H49.5158V22H46.3958ZM53.2031 22V6.92H64.3031V9.52H56.3231V13.12H63.5231V15.66H56.3231V19.4H64.3831V22H53.2031ZM67.8094 22V6.92H71.1094L77.4494 17.2V6.92H80.4894V22H77.3094L70.8494 11.5V22H67.8094ZM84.1981 22V6.92H90.0781C93.1781 6.92 95.1181 8.54 95.1181 11.16C95.1181 12.92 94.2381 14.2 92.6381 14.82L96.0181 22H92.5981L89.6781 15.4H87.3181V22H84.1981ZM87.3181 12.94H89.8781C91.2581 12.94 91.9981 12.3 91.9981 11.2C91.9981 10.1 91.2581 9.46 89.8781 9.46H87.3181V12.94ZM98.2836 22V6.92H109.384V9.52H101.404V13.12H108.604V15.66H101.404V19.4H109.464V22H98.2836ZM112.89 22V6.92H116.19L122.53 17.2V6.92H125.57V22H122.39L115.93 11.5V22H112.89ZM129.279 22V6.92H140.379V9.52H132.399V13.12H139.599V15.66H132.399V19.4H140.459V22H129.279ZM143.885 22V6.92H154.265V9.52H147.005V13.28H153.545V15.84H147.005V22H143.885ZM157.511 22V6.92H168.611V9.52H160.631V13.12H167.831V15.66H160.631V19.4H168.691V22H157.511ZM172.117 22V6.92H175.417L181.757 17.2V6.92H184.797V22H181.617L175.157 11.5V22H172.117Z" fill="#0B0B0B"/>
</svg>
