<svg width="240" height="36" viewBox="0 0 240 36" fill="none" xmlns="http://www.w3.org/2000/svg">
  <rect x="1" y="1" width="34" height="34" rx="17" fill="#0A0A0A"/>
  <path d="M9 18C10.8 14.1 14.8 11.5 19.4 11.5C23.4 11.5 27 13.6 29.1 16.9" stroke="#F36A18" stroke-width="2.1" stroke-linecap="round"/>
  <path d="M9.8 20.8H15.6L18 16.9L20.7 23.8L23.3 19.8H29.7" stroke="white" stroke-width="2.1" stroke-linecap="round" stroke-linejoin="round"/>
  <path d="M47.4 24V11.3H56.7C59.7 11.3 61.5 12.9 61.5 15.6C61.5 17.5 60.5 18.9 58.7 19.4L62 24H57.8L55 20.1H51V24H47.4ZM51 17.3H55.7C56.8 17.3 57.4 16.7 57.4 15.8C57.4 14.9 56.8 14.3 55.7 14.3H51V17.3Z" fill="#0A0A0A"/>
  <path d="M64.9 24V11.3H77V14.2H68.5V16.2H76.6V19.1H68.5V21.1H77.2V24H64.9Z" fill="#0A0A0A"/>
  <path d="M80.3 24V11.3H84L90.5 19.1V11.3H94V24H90.5L83.8 15.9V24H80.3Z" fill="#0A0A0A"/>
  <path d="M97.7 24V11.3H101.3V24H97.7Z" fill="#0A0A0A"/>
  <path d="M105.1 24V11.3H117.2V14.2H108.7V16.2H116.8V19.1H108.7V21.1H117.4V24H105.1Z" fill="#0A0A0A"/>
  <path d="M120.5 24V11.3H124.1V20.9H131.3V24H120.5Z" fill="#0A0A0A"/>
  <path d="M134 24V11.3H137.6V20.9H144.8V24H134Z" fill="#0A0A0A"/>
  <path d="M147.5 24V11.3H159.6V14.2H151.1V16.2H159.2V19.1H151.1V21.1H159.8V24H147.5Z" fill="#0A0A0A"/>
  <path d="M163 24V11.3H170.2C174.8 11.3 177.8 13.8 177.8 17.7C177.8 21.5 174.8 24 170.2 24H163ZM166.6 20.9H170.1C172.6 20.9 174.1 19.7 174.1 17.7C174.1 15.6 172.6 14.4 170.1 14.4H166.6V20.9Z" fill="#0A0A0A"/>
  <path d="M181 24V11.3H184.6V24H181Z" fill="#0A0A0A"/>
  <path d="M188.4 24V11.3H198.2C201.1 11.3 203.1 12.9 203.1 15.5C203.1 18.1 201.2 19.7 198.2 19.7H192V24H188.4ZM192 16.8H197.2C198.4 16.8 199.1 16.3 199.1 15.5C199.1 14.6 198.4 14.1 197.2 14.1H192V16.8Z" fill="#0A0A0A"/>
  <path d="M205.7 24V11.3H214.3C218 11.3 220.1 13.4 220.1 17.7C220.1 22 218 24 214.3 24H205.7ZM209.3 20.9H214.1C215.7 20.9 216.5 19.9 216.5 17.7C216.5 15.4 215.7 14.4 214.1 14.4H209.3V20.9Z" fill="#0A0A0A"/>
  <path d="M223.1 24V11.3H227.4L232.1 18.7L236.9 11.3H240V24H236.5V16.9L233.1 22.2H230.9L227.6 16.9V24H223.1Z" fill="#0A0A0A"/>
</svg>
